<?xml version="1.0" encoding="UTF-8" standalone="no"?>
<svg
   xmlns:dc="http://purl.org/dc/elements/1.1/"
   xmlns:cc="http://creativecommons.org/ns#"
   xmlns:rdf="http://www.w3.org/1999/02/22-rdf-syntax-ns#"
   xmlns:svg="http://www.w3.org/2000/svg"
   xmlns="http://www.w3.org/2000/svg"
   xmlns:sodipodi="http://sodipodi.sourceforge.net/DTD/sodipodi-0.dtd"
   xmlns:inkscape="http://www.inkscape.org/namespaces/inkscape"
   version="1.1"
   id="svg2"
   xml:space="preserve"
   width="1004.936"
   height="596.42535"
   viewBox="0 0 1004.936 596.42535"
   sodipodi:docname="ibs logo.ai"><metadata
     id="metadata8"><rdf:RDF><cc:Work
         rdf:about=""><dc:format>image/svg+xml</dc:format><dc:type
           rdf:resource="http://purl.org/dc/dcmitype/StillImage" /></cc:Work></rdf:RDF></metadata><defs
     id="defs6"><clipPath
       clipPathUnits="userSpaceOnUse"
       id="clipPath18"><path
         d="M 0,447.319 H 753.702 V 0 H 0 Z"
         id="path16" /></clipPath></defs><sodipodi:namedview
     pagecolor="#ffffff"
     bordercolor="#666666"
     borderopacity="1"
     objecttolerance="10"
     gridtolerance="10"
     guidetolerance="10"
     inkscape:pageopacity="0"
     inkscape:pageshadow="2"
     inkscape:window-width="640"
     inkscape:window-height="480"
     id="namedview4" /><g
     id="g10"
     inkscape:groupmode="layer"
     inkscape:label="ibs logo"
     transform="matrix(1.3333333,0,0,-1.3333333,0,596.42533)"><g
       id="g12"><g
         id="g14"
         clip-path="url(#clipPath18)"><g
           id="g20"
           transform="translate(329.7973,127.9073)"><path
             d="m 0,0 c -32.123,0 -64.247,0.038 -96.369,-0.066 -2.767,-0.009 -3.652,0.309 -3.646,3.474 0.13,64.427 0.123,128.854 0.014,193.28 -0.004,2.87 0.723,3.249 3.366,3.246 64.412,-0.089 128.823,-0.088 193.236,-0.003 2.606,0.003 3.389,-0.319 3.384,-3.225 C 99.874,132.113 99.88,67.521 99.972,2.928 99.976,0.312 99.22,-0.06 96.865,-0.054 64.577,0.026 32.288,0 0,0"
             style="fill:#fefefe;fill-opacity:1;fill-rule:nonzero;stroke:none"
             id="path22" /></g><g
           id="g24"
           transform="translate(330.8188,131.6055)"><path
             d="m 0,0 c -53.409,-0.072 -96.684,43.174 -96.715,96.649 -0.031,53.509 43.172,96.83 96.551,96.814 C 53.112,193.448 96.062,150.47 96.175,97.062 96.289,43.315 53.441,0.072 0,0"
             style="fill:#373436;fill-opacity:1;fill-rule:nonzero;stroke:none"
             id="path26" /></g><g
           id="g28"
           transform="translate(424.5942,228.4151)"><path
             d="m 0,0 c 0.032,-52.142 -42.074,-94.42 -94.021,-94.404 -51.965,0.016 -93.925,42.258 -93.863,94.496 0.062,51.978 41.952,94.069 93.707,94.155 C -42.214,94.334 -0.033,52.121 0,0"
             style="fill:#fefefe;fill-opacity:1;fill-rule:nonzero;stroke:none"
             id="path30" /></g><g
           id="g32"
           transform="translate(299.7993,188.3555)"><path
             d="m 0,0 c 3.016,3.938 3.685,7.541 3.668,11.487 -0.102,23.999 0.006,47.998 -0.175,71.995 -0.029,3.798 0.812,5.141 4.864,5.027 9.268,-0.26 9.274,-0.036 9.274,-9.463 0,-0.165 -0.005,-0.331 0.001,-0.496 0.116,-3.286 -0.87,-7.279 0.656,-9.662 1.571,-2.453 5.835,-0.646 8.902,-1.003 C 37.522,66.683 45.596,58.282 45.997,47.432 46.334,38.341 46.393,29.215 46.003,20.129 45.275,3.118 27.722,-6.061 13.272,2.953 10.992,4.375 9.634,4.243 7.677,2.748 5.743,1.27 3.47,0.277 0,0"
             style="fill:#322f31;fill-opacity:1;fill-rule:nonzero;stroke:none"
             id="path34" /></g><g
           id="g36"
           transform="translate(370.9828,254.3145)"><path
             d="m 0,0 c -3.443,-1.793 -4.899,-4.623 -4.776,-8.499 0.14,-4.452 -0.07,-8.915 0.065,-13.368 0.156,-5.204 2.824,-7.796 8.08,-7.937 4.287,-0.115 8.58,-0.061 12.87,-0.074 3.337,-0.01 5.641,-1.549 6.899,-4.642 5.138,-12.624 -2.749,-28.168 -15.921,-31.373 -1.109,-0.306 -2.32,-0.807 -2.207,1.177 3.66,1.866 5.041,4.88 4.892,8.932 -0.176,4.781 0.042,9.576 -0.071,14.361 -0.128,5.47 -2.848,8.209 -8.252,8.353 -4.289,0.113 -8.583,0.011 -12.874,0.064 -3.583,0.043 -6.172,1.847 -6.888,5.28 -2.279,10.936 0.626,24.834 15.09,28.714 C -1.918,1.11 -0.39,2.34 0,0"
             style="fill:#322f31;fill-opacity:1;fill-rule:nonzero;stroke:none"
             id="path38" /></g><g
           id="g40"
           transform="translate(285.2104,216.8692)"><path
             d="m 0,0 c 0.952,-7.577 -1.684,-16.92 1.484,-25.961 0.252,-0.719 0.268,-1.724 -0.61,-2.169 -0.865,-0.439 -1.48,0.336 -2.201,0.691 -7.785,3.828 -12.367,10.025 -12.65,18.691 -0.36,11.062 -0.078,22.144 -0.197,33.217 -0.026,2.417 0.886,2.983 3.178,3.097 C 0.003,28.114 0,28.187 0,17.439 Z"
             style="fill:#333032;fill-opacity:1;fill-rule:nonzero;stroke:none"
             id="path42" /></g><g
           id="g44"
           transform="translate(268.831,267.5347)"><path
             d="M 0,0 C 0.099,4.943 4.374,9.174 9.257,9.162 14.326,9.148 18.703,4.594 18.538,-0.495 18.374,-5.552 14.28,-9.554 9.261,-9.563 4.056,-9.573 -0.105,-5.276 0,0"
             style="fill:#ec273d;fill-opacity:1;fill-rule:nonzero;stroke:none"
             id="path46" /></g><g
           id="g48"
           transform="translate(379.142,255.2813)"><path
             d="m 0,0 c 9.1,-2.754 15.019,-10.03 15.581,-18.963 0.168,-2.668 -0.061,-4.161 -3.522,-4.198 C 1.575,-23.272 1.543,-23.45 1.592,-13.05 1.613,-8.39 2.144,-3.6 -3.078,-1.002 -2.716,1.374 -1.188,0.166 0,0"
             style="fill:#333032;fill-opacity:1;fill-rule:nonzero;stroke:none"
             id="path50" /></g><g
           id="g52"
           transform="translate(368.8578,188.4229)"><path
             d="m 0,0 c -9.709,2.363 -16.185,10.05 -16.652,19.53 -0.126,2.559 0.253,3.785 3.323,3.87 C -2.62,23.699 -2.575,23.833 -2.643,13.061 -2.673,8.377 -3.046,3.655 2.214,1.181 2.324,-0.803 1.114,-0.311 0,0"
             style="fill:#333032;fill-opacity:1;fill-rule:nonzero;stroke:none"
             id="path54" /></g><g
           id="g56"
           transform="translate(379.142,255.2813)"><path
             d="m 0,0 c -1.002,-0.406 -2.329,0.185 -3.078,-1.002 -1.693,0.012 -3.388,0.023 -5.081,0.035 -0.782,1.109 -2.09,0.574 -3.093,0.988 C -7.498,1.569 -3.748,1.565 0,0"
             style="fill:#615e60;fill-opacity:1;fill-rule:nonzero;stroke:none"
             id="path58" /></g><g
           id="g60"
           transform="translate(368.8578,188.4229)"><path
             d="M 0,0 C 0.764,0.347 1.788,0.202 2.214,1.181 3.854,1.179 5.494,1.178 7.135,1.176 7.56,0.201 8.583,0.348 9.342,-0.001 6.228,-1.318 3.114,-1.312 0,0"
             style="fill:#625f61;fill-opacity:1;fill-rule:nonzero;stroke:none"
             id="path62" /></g><g
           id="g64"
           transform="translate(317.4296,224.7476)"><path
             d="m 0,0 c -0.003,8.604 0.11,17.211 -0.064,25.812 -0.062,3.063 0.544,4.415 4.019,4.377 7.899,-0.084 10.427,-2.327 10.44,-10.303 0.024,-15.554 0.05,-31.109 -0.022,-46.663 -0.027,-5.683 -3.246,-9.116 -7.91,-8.495 -4.524,0.604 -6.456,3.572 -6.458,7.969 C 0,-18.202 0.003,-9.101 0,0"
             style="fill:#fdfdfd;fill-opacity:1;fill-rule:nonzero;stroke:none"
             id="path66" /></g></g></g></g></svg>
